<?xml version="1.0" standalone="no"?>
<!DOCTYPE svg PUBLIC "-//W3C//DTD SVG 20010904//EN"
 "http://www.w3.org/TR/2001/REC-SVG-20010904/DTD/svg10.dtd">
<svg version="1.0" xmlns="http://www.w3.org/2000/svg"
 width="900.000000pt" height="500.000000pt" viewBox="0 0 900.000000 500.000000"
 preserveAspectRatio="xMidYMid meet">

<g transform="translate(0.000000,500.000000) scale(0.100000,-0.100000)"
fill="#000000" stroke="none">
<path d="M3961 4508 c-70 -133 -254 -511 -301 -618 -17 -41 -48 -109 -67 -150
-56 -121 -200 -491 -265 -680 -256 -744 -420 -1263 -498 -1575 -10 -38 -43
-160 -73 -270 -49 -178 -74 -276 -122 -480 -29 -121 -34 -111 85 -166 110 -50
140 -58 140 -35 0 11 43 131 136 376 48 128 72 179 79 173 4 -5 5 -3 2 3 -4 7
4 36 18 65 20 43 25 48 22 24 -2 -16 -8 -38 -12 -47 -5 -13 -3 -18 9 -18 9 0
19 7 22 15 8 20 24 19 24 -1 0 -19 24 -44 42 -44 8 0 20 -9 28 -20 8 -11 18
-20 23 -20 14 0 37 -27 37 -44 0 -10 9 -16 25 -16 14 0 25 -4 25 -10 0 -5 8
-10 18 -10 10 0 24 -9 32 -20 8 -11 20 -20 27 -20 7 0 13 -4 13 -9 0 -5 7 -16
15 -24 13 -13 8 -33 -39 -169 -30 -84 -59 -166 -65 -181 -13 -34 -14 -47 -2
-47 9 0 309 184 323 198 4 4 12 109 17 232 9 182 17 257 43 392 23 124 36 169
47 173 32 9 472 74 876 130 399 54 526 68 538 56 19 -19 152 -538 182 -711 9
-52 20 -139 23 -194 l7 -99 81 -56 c45 -31 100 -69 123 -85 23 -16 44 -27 46
-24 3 3 -13 59 -36 124 -22 65 -44 133 -49 149 -4 17 -11 37 -15 46 -3 10 -2
20 4 24 7 4 11 -4 11 -19 0 -16 6 -26 14 -26 9 0 12 7 9 20 -4 15 0 20 16 20
11 0 21 5 21 10 0 6 43 10 110 10 103 0 110 1 110 20 0 17 7 20 40 20 33 0 40
-3 40 -20 0 -13 7 -20 19 -20 15 0 21 10 26 40 4 22 11 37 17 34 5 -3 7 -12 4
-20 -3 -8 1 -14 9 -14 8 0 15 -6 15 -12 0 -7 7 -26 16 -43 16 -31 64 -163 90
-248 8 -26 21 -50 29 -53 13 -6 202 51 217 65 8 7 -8 76 -57 241 -21 69 -52
181 -70 250 -18 69 -44 163 -58 210 -14 47 -53 191 -87 320 -56 213 -130 479
-212 759 -16 58 -57 177 -90 265 -33 89 -102 274 -153 411 -105 281 -125 334
-154 396 -11 24 -50 116 -87 204 -120 289 -330 724 -438 908 l-28 47 -453 0
-454 0 -60 -112z m568 -442 c12 -15 257 -504 327 -655 93 -198 35 -91 -144
269 -103 206 -195 379 -204 385 -12 7 -23 7 -35 -1 -9 -5 -100 -175 -202 -376
-102 -202 -187 -363 -189 -359 -1 4 48 106 109 226 62 121 143 281 180 356 38
75 75 144 84 153 20 20 59 21 74 2z m-2 -578 c25 -27 182 -424 256 -646 8 -26
14 -31 31 -26 21 6 21 6 1 -9 -11 -8 -60 -36 -110 -62 -49 -26 -112 -60 -140
-75 -27 -15 -111 -60 -185 -100 -74 -40 -164 -90 -200 -110 -83 -48 -147 -80
-158 -80 -5 0 13 55 40 123 119 294 247 630 314 822 45 129 79 185 114 185 9
0 26 -10 37 -22z m-461 -204 c-4 -9 -9 -15 -11 -12 -3 3 -3 13 1 22 4 9 9 15
11 12 3 -3 3 -13 -1 -22z m848 0 c3 -8 2 -12 -4 -9 -6 3 -10 10 -10 16 0 14 7
11 14 -7z m123 -267 c-3 -9 -103 198 -113 233 -3 8 23 -39 56 -104 33 -66 59
-124 57 -129z m-1031 144 c-20 -39 -39 -71 -42 -71 -3 0 -3 3 -1 8 2 4 18 38
36 75 18 38 35 67 37 64 3 -3 -11 -37 -30 -76z m-61 -120 c-8 -17 -18 -31 -21
-31 -3 0 -4 3 -2 8 21 43 32 61 35 58 3 -2 -3 -18 -12 -35z m-34 -64 c-10 -9
-11 -8 -5 6 3 10 9 15 12 12 3 -3 0 -11 -7 -18z m1143 7 c3 -8 2 -12 -4 -9 -6
3 -10 10 -10 16 0 14 7 11 14 -7z m-1198 -120 c-25 -49 -45 -85 -46 -80 0 12
83 177 87 172 2 -2 -17 -43 -41 -92z m1214 87 c0 -5 -7 -11 -14 -14 -10 -4
-13 -1 -9 9 6 15 23 19 23 5z m-40 -25 c0 -7 -113 -66 -117 -62 -3 2 20 17 49
34 53 30 68 36 68 28z m-1235 -186 c-9 -16 -18 -30 -21 -30 -2 0 2 14 11 30 9
17 18 30 21 30 2 0 -2 -13 -11 -30z m-35 -75 c-6 -15 -13 -25 -16 -23 -2 3 1
17 7 32 16 34 23 27 9 -9z m-39 -76 c-12 -19 -21 -30 -21 -26 0 14 31 69 36
64 3 -3 -4 -20 -15 -38z m-80 -166 c-12 -20 -14 -14 -5 12 4 9 9 14 11 11 3
-2 0 -13 -6 -23z m-20 -46 c-10 -9 -11 -8 -5 6 3 10 9 15 12 12 3 -3 0 -11 -7
-18z m-30 -68 c-5 -13 -10 -19 -10 -12 -1 15 10 45 15 40 3 -2 0 -15 -5 -28z
m1754 21 c3 -6 -1 -7 -9 -4 -18 7 -21 14 -7 14 6 0 13 -4 16 -10z m-72 -7 c-7
-2 -19 -2 -25 0 -7 3 -2 5 12 5 14 0 19 -2 13 -5z m-1707 -82 c-18 -20 -21
-47 -6 -56 6 -3 10 -11 10 -17 0 -6 -6 -6 -15 2 -13 11 -14 10 -9 -5 5 -12 15
-16 40 -13 19 2 34 3 34 2 0 -1 -33 -24 -72 -50 -40 -26 -78 -55 -85 -63 -23
-30 -13 -3 38 105 53 110 71 139 78 122 1 -5 -4 -17 -13 -27z m1441 23 c-3 -3
-12 -4 -19 -1 -8 3 -5 6 6 6 11 1 17 -2 13 -5z m-160 -40 c-3 -3 -12 -4 -19
-1 -8 3 -5 6 6 6 11 1 17 -2 13 -5z m-1360 -1266 c-3 -8 -6 -5 -6 6 -1 11 2
17 5 13 3 -3 4 -12 1 -19z m-23 -53 c-4 -8 -8 -15 -10 -15 -2 0 -4 7 -4 15 0
8 4 15 10 15 5 0 7 -7 4 -15z"/>
</g>
</svg>
