<svg width="57" height="58" viewBox="0 0 57 58" fill="none" xmlns="http://www.w3.org/2000/svg">
<path d="M28.2381 5.54986C26.4232 5.55892 24.6908 5.72159 23.1656 6.00616C18.6735 6.84263 17.8585 8.5935 17.8585 11.8229V16.0873H28.4732V17.5087H13.8744C10.7897 17.5087 8.08839 19.4631 7.24326 23.1823C6.26832 27.444 6.22533 30.1038 7.24326 34.5539C7.99768 37.8667 9.7997 40.2266 12.8849 40.2266H16.5349V35.1145C16.5349 31.421 19.5659 28.1635 23.166 28.1635H33.7688C36.7203 28.1635 39.0759 25.6015 39.0759 22.4777V11.8234C39.0759 8.79061 36.6489 6.51275 33.7688 6.00661C31.9444 5.6867 30.0526 5.54125 28.2381 5.54986ZM22.4976 8.97956C23.5938 8.97956 24.4896 9.93883 24.4896 11.1188C24.4896 12.2937 23.5942 13.2439 22.4976 13.2439C21.3971 13.2439 20.506 12.2937 20.506 11.1188C20.5056 9.93883 21.3971 8.97956 22.4976 8.97956Z" fill="url(#paint0_linear_82_243)"/>
<path d="M40.3994 17.5088V22.4777C40.3994 26.3293 37.301 29.5714 33.7683 29.5714H23.1656C20.2614 29.5714 17.8584 32.1918 17.8584 35.2577V45.9129C17.8584 48.9448 20.3594 50.7287 23.1656 51.5983C26.5254 52.6391 29.7477 52.8276 33.7683 51.5983C36.4404 50.7822 39.0755 49.141 39.0755 45.9129V41.6481H28.4732V40.2262H44.3835C47.4682 40.2262 48.6185 37.9583 49.6915 34.5535C50.7997 31.0486 50.752 27.6778 49.6915 23.1819C48.9289 19.9443 47.4729 17.5083 44.3835 17.5083L40.3994 17.5088ZM34.4359 44.491C35.5368 44.491 36.4279 45.4412 36.4279 46.6171C36.4279 47.7961 35.5363 48.7553 34.4359 48.7553C33.3397 48.7553 32.4443 47.7961 32.4443 46.6171C32.4443 45.4412 33.3397 44.491 34.4359 44.491Z" fill="url(#paint1_linear_82_243)"/>
<path opacity="0.444" d="M42.8184 54.1924C42.8184 55.7978 36.4495 57.0997 28.5936 57.0997C20.7374 57.0997 14.3684 55.7978 14.3684 54.1924C14.3684 52.587 20.7369 51.2847 28.5936 51.2847C36.4495 51.2847 42.8184 52.5861 42.8184 54.1924Z" fill="url(#paint2_radial_82_243)"/>
<defs>
<linearGradient id="paint0_linear_82_243" x1="5.43174" y1="6.88324" x2="30.9907" y2="27.5611" gradientUnits="userSpaceOnUse">
<stop stop-color="#5A9FD4"/>
<stop offset="1" stop-color="#306998"/>
</linearGradient>
<linearGradient id="paint1_linear_82_243" x1="39.1257" y1="42.5722" x2="29.7224" y2="30.0623" gradientUnits="userSpaceOnUse">
<stop stop-color="#FFD43B"/>
<stop offset="1" stop-color="#FFE873"/>
</linearGradient>
<radialGradient id="paint2_radial_82_243" cx="0" cy="0" r="1" gradientUnits="userSpaceOnUse" gradientTransform="translate(28.5361 54.1092) rotate(-90) scale(2.9083 12.1283)">
<stop stop-color="#B8B8B8" stop-opacity="0.498"/>
<stop offset="1" stop-color="#7F7F7F" stop-opacity="0"/>
</radialGradient>
</defs>
</svg>
