<svg width="44" height="64" viewBox="0 0 44 64" fill="none" xmlns="http://www.w3.org/2000/svg">
<g clip-path="url(#clip0_1_2036)">
<path d="M21.7954 32C21.7954 29.1711 22.9192 26.458 24.9196 24.4576C26.92 22.4572 29.6331 21.3334 32.4621 21.3334C35.2911 21.3334 38.0042 22.4572 40.0045 24.4576C42.0049 26.458 43.1287 29.1711 43.1287 32C43.1287 34.829 42.0049 37.5421 40.0045 39.5425C38.0042 41.5429 35.2911 42.6667 32.4621 42.6667C29.6331 42.6667 26.92 41.5429 24.9196 39.5425C22.9192 37.5421 21.7954 34.829 21.7954 32Z" fill="#1ABCFE"/>
<path d="M0.462036 53.3333C0.462036 50.5043 1.58584 47.7912 3.58623 45.7908C5.58662 43.7904 8.29973 42.6666 11.1287 42.6666H21.7954V53.3333C21.7954 56.1623 20.6716 58.8754 18.6712 60.8758C16.6708 62.8762 13.9577 64 11.1287 64C8.29973 64 5.58662 62.8762 3.58623 60.8758C1.58584 58.8754 0.462036 56.1623 0.462036 53.3333Z" fill="#0ACF83"/>
<path d="M21.7954 0V21.3333H32.4621C35.2911 21.3333 38.0042 20.2095 40.0045 18.2091C42.0049 16.2087 43.1287 13.4956 43.1287 10.6667C43.1287 7.83769 42.0049 5.12458 40.0045 3.12419C38.0042 1.12381 35.2911 0 32.4621 0L21.7954 0Z" fill="#FF7262"/>
<path d="M0.462036 10.6667C0.462036 13.4956 1.58584 16.2087 3.58623 18.2091C5.58662 20.2095 8.29973 21.3333 11.1287 21.3333H21.7954V0H11.1287C8.29973 0 5.58662 1.12381 3.58623 3.12419C1.58584 5.12458 0.462036 7.83769 0.462036 10.6667Z" fill="#F24E1E"/>
<path d="M0.462036 32C0.462036 34.829 1.58584 37.5421 3.58623 39.5425C5.58662 41.5429 8.29973 42.6667 11.1287 42.6667H21.7954V21.3334H11.1287C8.29973 21.3334 5.58662 22.4572 3.58623 24.4576C1.58584 26.458 0.462036 29.1711 0.462036 32Z" fill="#A259FF"/>
</g>
<defs>
<clipPath id="clip0_1_2036">
<rect width="42.6667" height="64" fill="white" transform="translate(0.462036)"/>
</clipPath>
</defs>
</svg>
