<?xml version="1.0" standalone="no"?>
<!DOCTYPE svg PUBLIC "-//W3C//DTD SVG 20010904//EN"
 "http://www.w3.org/TR/2001/REC-SVG-20010904/DTD/svg10.dtd">
<svg version="1.0" xmlns="http://www.w3.org/2000/svg"
 width="780.000000pt" height="780.000000pt" viewBox="0 0 780.000000 780.000000"
 preserveAspectRatio="xMidYMid meet">

<g transform="translate(0.000000,780.000000) scale(0.100000,-0.100000)"
fill="#000000" stroke="none">
<path d="M304 7495 c-8 -19 1 -7185 9 -7185 4252 0 7209 3 7200 7 -10 4 -13
732 -13 3594 0 2864 -3 3589 -12 3589 -1887 6 -7182 2 -7184 -5z m3946 -631
c386 -46 737 -158 1082 -348 76 -41 144 -80 150 -86 7 -6 47 -33 89 -60 153
-97 384 -297 535 -460 232 -252 452 -604 570 -913 62 -161 125 -370 143 -472
6 -33 15 -81 21 -108 41 -199 56 -600 31 -827 -22 -205 -69 -448 -84 -434 -4
4 -7 -5 -7 -21 0 -41 -31 -146 -41 -139 -5 3 -6 -2 -3 -11 7 -16 -54 -187 -68
-193 -4 -2 -8 -11 -8 -19 0 -38 -154 -337 -248 -483 -56 -87 -183 -260 -191
-260 -4 0 -231 226 -506 503 -274 276 -802 807 -1174 1179 l-675 678 494 495
c272 272 496 500 498 505 2 6 -147 9 -415 7 l-418 -2 -115 -114 c-63 -62 -247
-242 -409 -400 -162 -157 -307 -299 -323 -315 -25 -25 -29 -26 -28 -10 1 10 2
205 1 432 l-1 412 -370 0 c-280 -1 -372 -4 -376 -13 -2 -7 -3 -562 -2 -1235
l3 -1222 500 500 500 501 250 -254 c138 -139 477 -484 755 -766 278 -283 616
-627 752 -765 380 -386 578 -591 578 -596 -1 -3 -26 -23 -58 -44 -158 -109
-220 -151 -247 -166 -42 -23 -137 -79 -155 -90 -17 -11 -183 -88 -245 -115
-235 -100 -487 -165 -795 -206 -122 -17 -556 -17 -677 -1 -229 30 -583 115
-700 168 -18 8 -62 26 -98 39 -36 14 -73 29 -82 34 -10 5 -61 30 -113 56 -52
25 -104 51 -115 58 -88 54 -126 77 -130 77 -7 0 -159 104 -235 162 -143 108
-246 203 -415 382 -49 53 -116 135 -180 220 -64 87 -165 240 -165 252 0 4 -10
21 -23 38 -22 29 -157 297 -157 311 0 4 -7 21 -15 38 -31 69 -55 139 -50 148
4 5 2 9 -4 9 -5 0 -13 14 -16 32 -4 18 -11 39 -16 48 -8 15 -57 192 -66 240
-3 14 -5 37 -6 53 0 15 -3 27 -7 27 -4 0 -18 75 -31 168 -20 141 -24 204 -23
412 1 274 10 368 61 615 31 152 123 458 158 525 8 14 19 40 27 58 7 17 16 32
19 32 4 0 10 16 13 35 4 19 10 35 14 35 5 0 13 15 20 33 23 63 198 351 269
442 13 17 27 35 31 40 87 120 317 359 458 475 49 41 91 77 94 80 15 16 251
173 321 213 82 47 223 118 294 148 39 17 79 34 90 39 91 42 384 130 535 161
273 56 627 68 930 33z"/>
<path d="M3705 6509 c-378 -24 -764 -144 -1130 -352 -104 -59 -318 -212 -386
-277 -9 -8 -37 -33 -63 -55 -25 -22 -46 -44 -46 -50 0 -7 245 -9 720 -7 l720
3 0 -195 c0 -108 3 -196 7 -196 5 0 30 24 56 52 26 29 110 116 185 193 l137
140 907 0 c692 0 908 3 908 12 0 6 -9 15 -20 18 -11 3 -20 10 -20 15 0 4 -42
43 -92 85 -51 42 -102 84 -113 93 -11 10 -33 26 -50 36 -16 11 -34 23 -40 28
-5 5 -53 35 -105 68 -81 50 -137 80 -330 176 -45 22 -203 82 -272 103 -188 57
-402 97 -590 110 -160 12 -203 12 -383 0z"/>
<path d="M5600 5604 c-74 -74 -381 -378 -682 -676 -302 -297 -548 -544 -548
-548 0 -4 401 -408 891 -899 758 -759 893 -890 906 -880 32 27 133 244 192
414 52 148 66 197 86 285 9 41 20 93 25 115 39 176 54 411 40 635 -6 96 -13
186 -16 200 -3 14 -14 75 -25 135 -25 150 -106 428 -145 503 -8 15 -14 35 -14
45 0 9 -3 17 -8 17 -4 0 -13 15 -21 33 -26 61 -100 206 -127 249 -107 171
-193 288 -297 402 -40 43 -76 85 -80 92 -17 29 -46 9 -177 -122z"/>
<path d="M1978 5677 c-117 -134 -187 -223 -249 -315 -38 -57 -69 -108 -69
-112 0 -5 -3 -10 -7 -12 -26 -11 -231 -449 -224 -476 1 -1 -6 -19 -15 -40 -20
-48 -74 -255 -80 -307 -3 -22 -9 -51 -13 -65 -31 -86 -46 -451 -29 -680 11
-138 44 -329 79 -448 16 -56 27 -108 23 -114 -4 -6 -3 -8 3 -5 6 4 13 -5 16
-21 11 -56 52 -158 130 -322 49 -102 189 -347 206 -360 4 -3 38 -45 76 -95 37
-49 83 -106 100 -125 18 -19 48 -53 68 -75 l36 -40 1 1828 c0 1005 -3 1827 -7
1827 -5 0 -25 -19 -45 -43z"/>
<path d="M2721 2729 c-366 -369 -667 -674 -669 -679 -6 -17 310 -290 336 -290
6 0 12 -3 14 -7 2 -5 21 -20 43 -34 299 -197 639 -335 970 -394 134 -24 128
-23 302 -36 314 -23 677 19 973 113 158 50 450 181 450 202 0 8 -216 232 -409
424 -36 35 -42 46 -30 54 11 8 11 9 -3 5 -18 -6 -124 99 -669 663 -45 47 -179
184 -298 306 -119 121 -242 248 -274 282 -32 34 -61 62 -64 62 -3 0 -305 -302
-672 -671z"/>
</g>
</svg>
